PathFileType	4	(X/Y/Z)	/Users/niels/Desktop/University/Third Semester/Perception and Action/Exam/Gymnastics Motion Tracking/Code for Gym Tracking/Scripts/Analyzed Data/Start Salto/st_salto_good_id13_1_Sports2D/st_salto_good_id13_1_Sports2D_px_person00.trc
DataRate	CameraRate	NumFrames	NumMarkers	Units	OrigDataRate	OrigDataStartFrame	OrigNumFrames
29.82456140350877	29.82456140350877	8	22	m	29.82456140350877	106	171
Frame#	Time	Hip			RHip			RKnee			RAnkle			RBigToe			RSmallToe			RHeel			LHip			LKnee			LAnkle			LBigToe			LSmallToe			LHeel			Neck			Head			Nose			RShoulder			RElbow			RWrist			LShoulder			LElbow			LWrist		
		X1	Y1	Z1	X2	Y2	Z2	X3	Y3	Z3	X4	Y4	Z4	X5	Y5	Z5	X6	Y6	Z6	X7	Y7	Z7	X8	Y8	Z8	X9	Y9	Z9	X10	Y10	Z10	X11	Y11	Z11	X12	Y12	Z12	X13	Y13	Z13	X14	Y14	Z14	X15	Y15	Z15	X16	Y16	Z16	X17	Y17	Z17	X18	Y18	Z18	X19	Y19	Z19	X20	Y20	Z20	X21	Y21	Z21	X22	Y22	Z22
106	3.5541176470588236	1.5759418849837714	-0.43676106844477863	0.0	1.5763299570373204	-0.44859463493827434	0.0	1.7377398717484571	-0.46262844946754716	0.0	1.7589827370416742	-0.5948674821896109	0.0	1.8238475212675038	-0.624013393262847	0.0	1.815641973121103	-0.631405524546336	0.0	1.7439140715666568	-0.6144528460807828	0.0	1.5884793361246674	-0.42295439200241763	0.0	1.7010745867094337	-0.4042746549202962	0.0	1.8085374052148835	-0.5005809752731633	0.0	1.8631917551692565	-0.49338639724907657	0.0	1.8550865092496336	-0.4889297254968906	0.0	1.8107469001306093	-0.5192084367003883	0.0	1.4783601329379923	-0.27615970153908403	0.0	1.5088068708889972	-0.18684578585587025	0.0	1.530918822676991	-0.24005894985948	0.0	1.4824923397101095	-0.28219444234457014	0.0	1.556271120190388	-0.21455890159505253	0.0	1.5865471094373609	-0.12668171955794905	0.0	1.4580821132443142	-0.2848585425024398	0.0	1.5248556801275952	-0.2205279817952762	0.0	1.5582661688827788	-0.1473083248611956	0.0
107	3.5876470588235296	1.5869687619411654	-0.4412678966778826	0.0	1.5849772297573193	-0.45218916052643826	0.0	1.7459949108598414	-0.4820450551967375	0.0	1.765642675278319	-0.6165877050771648	0.0	1.8303916861624414	-0.6468849724366866	0.0	1.8215759964538867	-0.6538905753794607	0.0	1.7500798505364652	-0.6359725444040973	0.0	1.600601225447521	-0.4292420821141936	0.0	1.7159703158255981	-0.42112564705256395	0.0	1.8219066857997097	-0.5185112686640815	0.0	1.8758555958282388	-0.5159485183080377	0.0	1.8688094558003852	-0.5120375998357376	0.0	1.8254274942400004	-0.5381836509365776	0.0	1.4938047618348318	-0.27541329045549523	0.0	1.529710575937004	-0.18673441697656654	0.0	1.547922569497553	-0.24173326801879663	0.0	1.4953970202393467	-0.28301886273810445	0.0	1.57262860124466	-0.2152609253629171	0.0	1.6026828554556403	-0.12591552026171338	0.0	1.4750831011865597	-0.28541103449112115	0.0	1.5519462290341628	-0.2209891390881714	0.0	1.5873238578143893	-0.1376184502805057	0.0
108	3.6211764705882357	1.598961476293343	-0.4455468491973309	0.0	1.5946598878099416	-0.45568708260554347	0.0	1.7526057234047754	-0.5008976233023168	0.0	1.7718227572571135	-0.6375289599144817	0.0	1.8363757983204336	-0.6690397909501672	0.0	1.826684214356535	-0.6757032596877439	0.0	1.756034310949019	-0.6565695986711026	0.0	1.6132398506864045	-0.4352137026389201	0.0	1.7298245994122259	-0.4380101199944003	0.0	1.8337218948251268	-0.5362615443823556	0.0	1.8875180879969868	-0.5384680417672725	0.0	1.8813627495059357	-0.5355083709666453	0.0	1.838506279944629	-0.55693218388618	0.0	1.5095542018677441	-0.27502476102209017	0.0	1.549539104788154	-0.1877002898849306	0.0	1.5649098926494531	-0.2435459474811724	0.0	1.508098320338826	-0.2841374243368613	0.0	1.5890624494579229	-0.21699599192704455	0.0	1.6188161645878374	-0.1263506516772221	0.0	1.4927237851059323	-0.2861737268606533	0.0	1.5763730179307545	-0.2222774055409586	0.0	1.6122654860860046	-0.13052389121755437	0.0
109	3.6547058823529412	1.611977197141304	-0.4497287495289326	0.0	1.6057961472808087	-0.45932527075076535	0.0	1.7577333257004042	-0.5191965043168862	0.0	1.7775255874716394	-0.6577953219429794	0.0	1.841699529284631	-0.6906119924486886	0.0	1.8309505197762146	-0.6969818309668696	0.0	1.7617396448505553	-0.6763662156354832	0.0	1.6268669648755956	-0.44107611038265826	0.0	1.7425926509332468	-0.45482479707684625	0.0	1.8439491558349246	-0.55403199478336	0.0	1.8978823985114477	-0.5610301291665704	0.0	1.8923087244391246	-0.5594870164944057	0.0	1.8496914275408873	-0.5754685707148302	0.0	1.5259894053010148	-0.2750773636028102	0.0	1.5682984278472054	-0.18969068337419268	0.0	1.582249395783595	-0.24557830551928522	0.0	1.5211369003074626	-0.2853472642109107	0.0	1.60573090442255	-0.21985935753455776	0.0	1.635091954945377	-0.12814456884255232	0.0	1.511653975873239	-0.28728888613245646	0.0	1.598589751777233	-0.22411325911640043	0.0	1.6339019181776593	-0.12674026378103678	0.0
110	3.6882352941176473	1.6259094766424784	-0.4539617233755469	0.0	1.6185494102830589	-0.463380207901936	0.0	1.761694576292388	-0.5370822284535604	0.0	1.7826286592790646	-0.6775040984839553	0.0	1.8462425544895331	-0.7116149356290851	0.0	1.8343540575194939	-0.7177268200466427	0.0	1.767052245614629	-0.6955849829555908	0.0	1.6417526075621127	-0.44713277539528923	0.0	1.7544906421175779	-0.4717249921051482	0.0	1.8528300141817184	-0.5720840680585862	0.0	1.9065328292187405	-0.5838002006728154	0.0	1.9013442267404537	-0.5839490454339245	0.0	1.859043164755093	-0.5939450207866376	0.0	1.5434902257053262	-0.2755789364175768	0.0	1.5862917895848627	-0.19257498172193857	0.0	1.6001522651816114	-0.2477341322675117	0.0	1.5354874174748585	-0.28661783419713444	0.0	1.622839657211876	-0.22374853225316518	0.0	1.6517348605604951	-0.1313395717597489	0.0	1.5316441431011434	-0.2888563912495712	0.0	1.6194654845291774	-0.22620018242033121	0.0	1.6535925080351448	-0.1264429614971838	0.0
111	3.7217647058823533	1.6403424535280766	-0.458294620516054	0.0	1.6326253092547613	-0.46793542355384043	0.0	1.7648481676922516	-0.5543879351424179	0.0	1.7868291848885969	-0.6963407170109236	0.0	1.8497952566916644	-0.7315022293132201	0.0	1.836853177981534	-0.7373565566132417	0.0	1.7716547277976096	-0.7140515576144421	0.0	1.657521275234446	-0.4535166515859933	0.0	1.7656634860479488	-0.48868222682467705	0.0	1.8606525768245972	-0.5903738863765506	0.0	1.9129949204820667	-0.6065762888867551	0.0	1.9082433245969974	-0.608249797493033	0.0	1.8667603375383222	-0.6123264823319234	0.0	1.5619137567502839	-0.2765106139738948	0.0	1.603690148547657	-0.1961578451912721	0.0	1.618287007711431	-0.24981074660429758	0.0	1.552052293324696	-0.2880582832000372	0.0	1.6403134591158477	-0.22835923352378587	0.0	1.66875037618671	-0.13587596289770154	0.0	1.5508608495393035	-0.29087383791098237	0.0	1.639154166948619	-0.2284403568019377	0.0	1.6719876052525715	-0.13000892590278068	0.0
112	3.755294117647059	1.6547853991698473	-0.4627423013047874	0.0	1.6474217373383762	-0.4727887691918715	0.0	1.7675948062642033	-0.5706856045043515	0.0	1.78978478449926	-0.713715223708191	0.0	1.8521244885833776	-0.749328131031886	0.0	1.8383581776733366	-0.7549558126137585	0.0	1.7751392127277443	-0.7312143035440205	0.0	1.6733773861166052	-0.46010874867036683	0.0	1.7762012791016342	-0.5054342705568792	0.0	1.8676740512611234	-0.6086447192567686	0.0	1.9171664919662996	-0.6289581522975621	0.0	1.9130284763369898	-0.6313892173086687	0.0	1.8731096778008711	-0.6304728662932831	0.0	1.5806577453514092	-0.2780173777141562	0.0	1.6206645327898213	-0.20014169877340907	0.0	1.6360884902769004	-0.25177685990089954	0.0	1.5709629385979365	-0.2898864377335307	0.0	1.6579163777380217	-0.2333545564378601	0.0	1.686049268349164	-0.1415186377939207	0.0	1.5671246268905872	-0.29332721873956447	0.0	1.6568602065465063	-0.2311338705721517	0.0	1.6887218212684127	-0.13843896927195087	0.0
113	3.788823529411765	1.6690955401533991	-0.4674168005723881	0.0	1.662508362022658	-0.4776680992261149	0.0	1.770367164686142	-0.5856400211342743	0.0	1.7912799888276494	-0.7291528231616966	0.0	1.8530489180017833	-0.7642468448242112	0.0	1.838630335844677	-0.7697912315209984	0.0	1.7771421799911826	-0.7464944259995961	0.0	1.6887398148539539	-0.4666979578229646	0.0	1.7863684813576954	-0.5217797782649435	0.0	1.8741134603299783	-0.6267503762735456	0.0	1.9195548207647561	-0.6507237375975163	0.0	1.916083820015634	-0.652641655502426	0.0	1.8784096637661827	-0.6484127194363419	0.0	1.5991583197166535	-0.28042055842190633	0.0	1.6376879814863994	-0.20421773025247278	0.0	1.6533235501487227	-0.2539260087004364	0.0	1.5915471606018525	-0.2924049748713795	0.0	1.6756406035516715	-0.23848480263405944	0.0	1.7037439349906789	-0.14780902051773903	0.0	1.580045215544367	-0.29635354968974115	0.0	1.6712401161750385	-0.2351196982467478	0.0	1.702579976196865	-0.15348066076470127	0.0
